<?xml version="1.0" encoding="UTF-8"?>
<svg id="katman_1" data-name="katman 1" xmlns="http://www.w3.org/2000/svg" viewBox="0 0 910.59 244.24">
  <defs>
    <style>
      .cls-1 {
        stroke: #314e8d;
        stroke-miterlimit: 10;
        stroke-width: 6px;
      }

      .cls-1, .cls-2 {
        fill: #fff;
      }

      .cls-2, .cls-3 {
        stroke-width: 0px;
      }

      .cls-3 {
        fill: #314e8d;
      }
    </style>
  </defs>
  <path class="cls-1" d="M786.84,228.95H125.59c-59.95,0-108.55-48.6-108.55-108.55h0c0-59.95,48.6-108.55,108.55-108.55h661.25c59.95,0,108.55,48.6,108.55,108.55h0c0,59.95-48.6,108.55-108.55,108.55Z"/>
  <g>
    <path class="cls-3" d="M240.48,141.8h-16.59l-2.75,7.94h-8.77l14.98-41.72h9.73l14.98,41.72h-8.83l-2.75-7.94ZM238.21,135.11l-6.03-17.43-6.03,17.43h12.06Z"/>
    <path class="cls-3" d="M293.3,149.73h-8.36l-18.92-28.59v28.59h-8.36v-41.72h8.36l18.92,28.65v-28.65h8.36v41.72Z"/>
    <path class="cls-3" d="M327.08,141.8h-16.59l-2.75,7.94h-8.77l14.98-41.72h9.73l14.98,41.72h-8.83l-2.75-7.94ZM324.81,135.11l-6.03-17.43-6.03,17.43h12.06Z"/>
    <path class="cls-3" d="M384.02,141.8h-16.59l-2.75,7.94h-8.77l14.98-41.72h9.73l14.98,41.72h-8.83l-2.75-7.94ZM381.75,135.11l-6.03-17.43-6.03,17.43h12.06Z"/>
    <path class="cls-3" d="M401.95,117.83c1.85-3.24,4.38-5.77,7.58-7.58,3.2-1.81,6.79-2.72,10.77-2.72,4.66,0,8.73,1.19,12.24,3.58,3.5,2.39,5.95,5.69,7.34,9.91h-9.61c-.95-1.99-2.3-3.48-4.03-4.48-1.73-.99-3.73-1.49-6-1.49-2.43,0-4.59.57-6.48,1.7-1.89,1.13-3.36,2.74-4.42,4.8-1.05,2.07-1.58,4.5-1.58,7.28s.53,5.16,1.58,7.25c1.05,2.09,2.53,3.7,4.42,4.83,1.89,1.13,4.05,1.7,6.48,1.7,2.27,0,4.27-.51,6-1.52,1.73-1.01,3.07-2.52,4.03-4.51h9.61c-1.39,4.26-3.83,7.57-7.31,9.94-3.48,2.37-7.57,3.55-12.27,3.55-3.98,0-7.57-.9-10.77-2.72-3.2-1.81-5.73-4.33-7.58-7.55-1.85-3.22-2.78-6.88-2.78-10.98s.93-7.77,2.78-11.01Z"/>
    <path class="cls-3" d="M455.4,114.82v10.44h14.03v6.62h-14.03v11.04h15.82v6.8h-24.17v-41.72h24.17v6.8h-15.82Z"/>
    <path class="cls-3" d="M514.42,149.73h-8.36l-18.92-28.59v28.59h-8.35v-41.72h8.35l18.92,28.65v-28.65h8.36v41.72Z"/>
    <path class="cls-3" d="M551.01,108.08v6.74h-11.1v34.92h-8.36v-34.92h-11.1v-6.74h30.56Z"/>
    <path class="cls-3" d="M565.45,114.82v10.44h14.03v6.62h-14.03v11.04h15.82v6.8h-24.17v-41.72h24.17v6.8h-15.82Z"/>
    <path class="cls-3" d="M634.27,108.08v41.66h-8.36v-27.1l-11.16,27.1h-6.33l-11.22-27.1v27.1h-8.36v-41.66h9.49l13.25,30.98,13.25-30.98h9.43Z"/>
  </g>
</svg>
