<?xml version="1.0" encoding="UTF-8"?>
<svg id="katman_1" data-name="katman 1" xmlns="http://www.w3.org/2000/svg" viewBox="0 0 910.59 244.24">
  <defs>
    <style>
      .cls-1 {
        stroke: #314e8d;
        stroke-miterlimit: 10;
        stroke-width: 6px;
      }

      .cls-1, .cls-2 {
        fill: #fff;
      }

      .cls-2, .cls-3 {
        stroke-width: 0px;
      }

      .cls-3 {
        fill: #314e8d;
      }
    </style>
  </defs>
  <path class="cls-1" d="M785.92,230.67H124.67c-59.95,0-108.55-48.6-108.55-108.55h0c0-59.95,48.6-108.55,108.55-108.55h661.25c59.95,0,108.55,48.6,108.55,108.55h0c0,59.95-48.6,108.55-108.55,108.55Z"/>
  <g>
    <path class="cls-3" d="M151.35,119.78c-.95-1.75-2.27-3.08-3.94-4-1.67-.92-3.62-1.37-5.85-1.37-2.47,0-4.66.56-6.56,1.67-1.91,1.11-3.4,2.71-4.48,4.77-1.07,2.07-1.61,4.46-1.61,7.16s.55,5.21,1.64,7.28c1.09,2.07,2.62,3.66,4.57,4.77,1.95,1.11,4.22,1.67,6.8,1.67,3.18,0,5.79-.84,7.82-2.54,2.03-1.69,3.36-4.05,4-7.07h-14.32v-6.39h22.56v7.28c-.56,2.9-1.75,5.59-3.58,8.06-1.83,2.47-4.19,4.45-7.07,5.94-2.89,1.49-6.12,2.24-9.7,2.24-4.02,0-7.65-.9-10.89-2.72-3.24-1.81-5.79-4.33-7.64-7.55-1.85-3.22-2.78-6.88-2.78-10.98s.93-7.77,2.78-11.01c1.85-3.24,4.4-5.77,7.64-7.58,3.24-1.81,6.85-2.72,10.83-2.72,4.69,0,8.77,1.14,12.24,3.43,3.46,2.29,5.85,5.5,7.16,9.64h-9.61Z"/>
    <path class="cls-3" d="M176.54,113.99v10.44h14.03v6.62h-14.03v11.04h15.82v6.8h-24.17v-41.72h24.17v6.8h-15.82Z"/>
    <path class="cls-3" d="M235.57,148.91h-8.36l-18.92-28.59v28.59h-8.36v-41.72h8.36l18.92,28.65v-28.65h8.36v41.72Z"/>
    <path class="cls-3" d="M252.16,113.99v10.44h14.03v6.62h-14.03v11.04h15.82v6.8h-24.17v-41.72h24.17v6.8h-15.82Z"/>
    <path class="cls-3" d="M283.91,142.28h13.73v6.62h-22.08v-41.66h8.36v35.03Z"/>
    <path class="cls-3" d="M362.57,107.25v41.66h-8.36v-27.1l-11.16,27.1h-6.33l-11.22-27.1v27.1h-8.36v-41.66h9.49l13.25,30.98,13.25-30.98h9.43Z"/>
    <path class="cls-3" d="M379.04,107.25v25.78c0,2.83.74,4.98,2.21,6.48,1.47,1.49,3.54,2.24,6.21,2.24s4.79-.75,6.27-2.24c1.47-1.49,2.21-3.65,2.21-6.48v-25.78h8.42v25.72c0,3.54-.77,6.54-2.3,8.98-1.53,2.45-3.58,4.29-6.15,5.52-2.57,1.23-5.42,1.85-8.56,1.85s-5.92-.62-8.45-1.85c-2.53-1.23-4.53-3.07-6-5.52-1.47-2.45-2.21-5.44-2.21-8.98v-25.72h8.36ZM379.16,102.12c-.76-.76-1.13-1.69-1.13-2.81s.38-2.06,1.13-2.83c.76-.78,1.69-1.16,2.81-1.16s2.06.39,2.83,1.16,1.16,1.72,1.16,2.83-.39,2.05-1.16,2.81c-.78.76-1.72,1.13-2.83,1.13s-2.05-.38-2.81-1.13ZM390.2,102.12c-.76-.76-1.13-1.69-1.13-2.81s.38-2.06,1.13-2.83c.76-.78,1.69-1.16,2.81-1.16s2.06.39,2.83,1.16,1.16,1.72,1.16,2.83-.39,2.05-1.16,2.81c-.78.76-1.72,1.13-2.83,1.13s-2.05-.38-2.81-1.13Z"/>
    <path class="cls-3" d="M438.52,109.82c3.32,1.71,5.89,4.15,7.7,7.31,1.81,3.16,2.72,6.83,2.72,11.01s-.91,7.83-2.72,10.95c-1.81,3.12-4.38,5.54-7.7,7.25-3.32,1.71-7.17,2.57-11.55,2.57h-14.56v-41.66h14.56c4.38,0,8.23.86,11.55,2.57ZM436.82,138.23c2.39-2.39,3.58-5.75,3.58-10.09s-1.19-7.73-3.58-10.18c-2.39-2.45-5.77-3.67-10.15-3.67h-5.91v27.51h5.91c4.38,0,7.76-1.19,10.15-3.58Z"/>
    <path class="cls-3" d="M463.43,107.25v25.78c0,2.83.74,4.98,2.21,6.48,1.47,1.49,3.54,2.24,6.21,2.24s4.79-.75,6.27-2.24c1.47-1.49,2.21-3.65,2.21-6.48v-25.78h8.42v25.72c0,3.54-.77,6.54-2.3,8.98-1.53,2.45-3.58,4.29-6.15,5.52-2.57,1.23-5.42,1.85-8.56,1.85s-5.92-.62-8.45-1.85c-2.53-1.23-4.53-3.07-6-5.52-1.47-2.45-2.21-5.44-2.21-8.98v-25.72h8.36ZM463.55,102.12c-.76-.76-1.13-1.69-1.13-2.81s.38-2.06,1.13-2.83,1.69-1.16,2.81-1.16,2.06.39,2.83,1.16c.78.78,1.16,1.72,1.16,2.83s-.39,2.05-1.16,2.81c-.78.76-1.72,1.13-2.83,1.13s-2.05-.38-2.81-1.13ZM474.59,102.12c-.76-.76-1.13-1.69-1.13-2.81s.38-2.06,1.13-2.83c.75-.78,1.69-1.16,2.8-1.16s2.06.39,2.83,1.16,1.16,1.72,1.16,2.83-.39,2.05-1.16,2.81c-.78.76-1.72,1.13-2.83,1.13s-2.05-.38-2.8-1.13Z"/>
    <path class="cls-3" d="M518.28,148.91l-9.19-16.23h-3.94v16.23h-8.36v-41.66h15.64c3.22,0,5.97.57,8.24,1.7s3.97,2.67,5.1,4.6c1.13,1.93,1.7,4.09,1.7,6.48,0,2.75-.8,5.22-2.39,7.43-1.59,2.21-3.96,3.73-7.1,4.57l9.97,16.89h-9.67ZM505.15,126.41h6.98c2.27,0,3.96-.55,5.07-1.64,1.11-1.09,1.67-2.62,1.67-4.57s-.56-3.39-1.67-4.45c-1.12-1.05-2.81-1.58-5.07-1.58h-6.98v12.23Z"/>
    <path class="cls-3" d="M543.41,142.28h13.73v6.62h-22.08v-41.66h8.36v35.03Z"/>
    <path class="cls-3" d="M570.68,107.25v25.78c0,2.83.74,4.98,2.21,6.48,1.47,1.49,3.54,2.24,6.21,2.24s4.79-.75,6.27-2.24c1.47-1.49,2.21-3.65,2.21-6.48v-25.78h8.42v25.72c0,3.54-.77,6.54-2.3,8.98-1.53,2.45-3.58,4.29-6.15,5.52-2.57,1.23-5.42,1.85-8.56,1.85s-5.92-.62-8.45-1.85c-2.53-1.23-4.53-3.07-6-5.52-1.47-2.45-2.21-5.44-2.21-8.98v-25.72h8.36ZM570.8,102.12c-.76-.76-1.13-1.69-1.13-2.81s.38-2.06,1.13-2.83,1.69-1.16,2.81-1.16,2.06.39,2.83,1.16c.78.78,1.16,1.72,1.16,2.83s-.39,2.05-1.16,2.81c-.78.76-1.72,1.13-2.83,1.13s-2.05-.38-2.81-1.13ZM581.84,102.12c-.76-.76-1.13-1.69-1.13-2.81s.38-2.06,1.13-2.83c.75-.78,1.69-1.16,2.8-1.16s2.06.39,2.83,1.16,1.16,1.72,1.16,2.83-.39,2.05-1.16,2.81c-.78.76-1.72,1.13-2.83,1.13s-2.05-.38-2.8-1.13Z"/>
    <path class="cls-3" d="M627.56,148.91l-15.16-18.56v18.56h-8.36v-41.66h8.36v18.68l15.16-18.68h10.09l-17.19,20.65,17.67,21.01h-10.56Z"/>
  </g>
</svg>
