<?xml version="1.0" encoding="UTF-8"?>
<svg id="katman_1" data-name="katman 1" xmlns="http://www.w3.org/2000/svg" viewBox="0 0 910.59 244.24">
  <defs>
    <style>
      .cls-1 {
        stroke: #314e8d;
        stroke-miterlimit: 10;
        stroke-width: 6px;
      }

      .cls-1, .cls-2 {
        fill: #fff;
      }

      .cls-2, .cls-3 {
        stroke-width: 0px;
      }

      .cls-3 {
        fill: #314e8d;
      }
    </style>
  </defs>
  <path class="cls-1" d="M785.92,230.67H124.67c-59.95,0-108.55-48.6-108.55-108.55h0c0-59.95,48.6-108.55,108.55-108.55h661.25c59.95,0,108.55,48.6,108.55,108.55h0c0,59.95-48.6,108.55-108.55,108.55Z"/>
  <g>
    <path class="cls-3" d="M221.82,148.91l-15.16-18.56v18.56h-8.36v-41.66h8.36v18.68l15.16-18.68h10.09l-17.19,20.65,17.67,21.01h-10.56Z"/>
    <path class="cls-3" d="M263.42,140.97h-16.59l-2.75,7.94h-8.77l14.98-41.72h9.73l14.98,41.72h-8.83l-2.75-7.94ZM261.15,134.29l-6.03-17.43-6.03,17.43h12.06Z"/>
    <path class="cls-3" d="M315.16,107.25v41.66h-8.36v-17.73h-17.85v17.73h-8.36v-41.66h8.36v17.13h17.85v-17.13h8.36Z"/>
    <path class="cls-3" d="M360.82,107.25l-15.28,41.66h-10.15l-15.28-41.66h8.95l11.46,33.12,11.4-33.12h8.89Z"/>
    <path class="cls-3" d="M374.19,113.99v10.45h14.03v6.62h-14.03v11.04h15.82v6.8h-24.17v-41.72h24.17v6.8h-15.82Z"/>
    <path class="cls-3" d="M457.21,107.25v41.66h-8.36v-27.1l-11.16,27.1h-6.33l-11.22-27.1v27.1h-8.36v-41.66h9.49l13.25,30.98,13.25-30.98h9.43Z"/>
    <path class="cls-3" d="M474.04,146.58c-3.26-1.83-5.85-4.37-7.76-7.61-1.91-3.24-2.87-6.91-2.87-11.01s.96-7.71,2.87-10.95,4.5-5.78,7.76-7.61c3.26-1.83,6.84-2.75,10.74-2.75s7.53.92,10.77,2.75c3.24,1.83,5.81,4.37,7.7,7.61,1.89,3.24,2.83,6.89,2.83,10.95s-.95,7.77-2.83,11.01c-1.89,3.24-4.47,5.78-7.73,7.61s-6.84,2.75-10.74,2.75-7.48-.92-10.74-2.75ZM491.4,140.17c1.91-1.13,3.4-2.75,4.48-4.86,1.07-2.11,1.61-4.56,1.61-7.34s-.54-5.22-1.61-7.31-2.57-3.69-4.48-4.8c-1.91-1.11-4.12-1.67-6.62-1.67s-4.73.56-6.66,1.67c-1.93,1.11-3.43,2.72-4.51,4.8s-1.61,4.53-1.61,7.31.54,5.23,1.61,7.34c1.07,2.11,2.58,3.73,4.51,4.86s4.15,1.7,6.66,1.7,4.71-.57,6.62-1.7Z"/>
    <path class="cls-3" d="M520.65,142.28h13.73v6.62h-22.08v-41.66h8.36v35.03Z"/>
    <path class="cls-3" d="M565.23,140.97h-16.59l-2.75,7.94h-8.77l14.98-41.72h9.73l14.98,41.72h-8.83l-2.75-7.94ZM562.96,134.29l-6.03-17.43-6.03,17.43h12.06Z"/>
    <path class="cls-3" d="M588.95,147.83c-2.33-.99-4.17-2.43-5.52-4.3-1.35-1.87-2.05-4.08-2.09-6.62h8.95c.12,1.71.73,3.06,1.82,4.06,1.09,1,2.6,1.49,4.51,1.49s3.48-.47,4.59-1.4c1.11-.93,1.67-2.16,1.67-3.67,0-1.23-.38-2.25-1.13-3.04s-1.7-1.42-2.83-1.88c-1.13-.46-2.7-.96-4.68-1.52-2.71-.79-4.9-1.58-6.59-2.36-1.69-.78-3.14-1.95-4.36-3.52-1.21-1.57-1.82-3.67-1.82-6.3,0-2.47.62-4.62,1.85-6.45,1.23-1.83,2.96-3.23,5.19-4.21,2.23-.97,4.77-1.46,7.64-1.46,4.3,0,7.79,1.04,10.47,3.13,2.69,2.09,4.17,5,4.45,8.74h-9.19c-.08-1.43-.69-2.62-1.82-3.55-1.13-.93-2.64-1.4-4.51-1.4-1.63,0-2.93.42-3.91,1.25-.98.83-1.46,2.05-1.46,3.64,0,1.11.37,2.04,1.1,2.78.74.74,1.65,1.33,2.75,1.79,1.09.46,2.64.99,4.62,1.58,2.71.8,4.91,1.59,6.62,2.39s3.18,1.99,4.42,3.58c1.23,1.59,1.85,3.68,1.85,6.27,0,2.23-.58,4.3-1.73,6.21-1.15,1.91-2.84,3.43-5.07,4.57s-4.87,1.7-7.94,1.7c-2.91,0-5.52-.5-7.85-1.49Z"/>
    <path class="cls-3" d="M627.12,107.25v41.66h-8.36v-41.66h8.36Z"/>
  </g>
</svg>
