<?xml version="1.0" encoding="UTF-8"?>
<svg id="katman_1" data-name="katman 1" xmlns="http://www.w3.org/2000/svg" viewBox="0 0 910.59 244.24">
  <defs>
    <style>
      .cls-1 {
        stroke: #314e8d;
        stroke-miterlimit: 10;
        stroke-width: 6px;
      }

      .cls-1, .cls-2 {
        fill: #fff;
      }

      .cls-2, .cls-3 {
        stroke-width: 0px;
      }

      .cls-3 {
        fill: #314e8d;
      }
    </style>
  </defs>
  <path class="cls-1" d="M785.92,230.67H124.67c-59.95,0-108.55-48.6-108.55-108.55h0c0-59.95,48.6-108.55,108.55-108.55h661.25c59.95,0,108.55,48.6,108.55,108.55h0c0,59.95-48.6,108.55-108.55,108.55Z"/>
  <g>
    <path class="cls-3" d="M313.58,140.97h-16.59l-2.75,7.94h-8.77l14.98-41.72h9.73l14.98,41.72h-8.83l-2.75-7.94ZM311.31,134.29l-6.03-17.43-6.03,17.43h12.06Z"/>
    <path class="cls-3" d="M366.4,148.91h-8.36l-18.92-28.59v28.59h-8.36v-41.72h8.36l18.92,28.65v-28.65h8.36v41.72Z"/>
    <path class="cls-3" d="M400.18,140.97h-16.59l-2.75,7.94h-8.77l14.98-41.72h9.73l14.98,41.72h-8.83l-2.75-7.94ZM397.91,134.29l-6.03-17.43-6.03,17.43h12.06Z"/>
    <path class="cls-3" d="M438.11,147.83c-2.33-.99-4.17-2.43-5.52-4.3-1.35-1.87-2.05-4.08-2.09-6.62h8.95c.12,1.71.73,3.06,1.82,4.06,1.09,1,2.6,1.49,4.51,1.49s3.48-.47,4.6-1.4c1.11-.93,1.67-2.16,1.67-3.67,0-1.23-.38-2.25-1.13-3.04-.76-.79-1.7-1.42-2.83-1.88-1.13-.46-2.7-.96-4.69-1.52-2.71-.8-4.9-1.58-6.6-2.36-1.69-.78-3.14-1.95-4.36-3.52-1.21-1.57-1.82-3.67-1.82-6.3,0-2.47.62-4.62,1.85-6.45,1.23-1.83,2.96-3.23,5.19-4.21,2.23-.97,4.77-1.46,7.64-1.46,4.3,0,7.79,1.04,10.47,3.13s4.17,5,4.45,8.74h-9.19c-.08-1.43-.69-2.62-1.82-3.55-1.13-.93-2.64-1.4-4.51-1.4-1.63,0-2.93.42-3.91,1.25-.98.84-1.46,2.05-1.46,3.64,0,1.12.37,2.04,1.1,2.78.74.74,1.65,1.33,2.75,1.79,1.09.46,2.64.98,4.63,1.58,2.71.8,4.91,1.59,6.62,2.39,1.71.8,3.18,1.99,4.42,3.58,1.23,1.59,1.85,3.68,1.85,6.27,0,2.23-.58,4.3-1.73,6.21-1.15,1.91-2.85,3.43-5.07,4.57-2.23,1.13-4.87,1.7-7.94,1.7-2.91,0-5.52-.5-7.85-1.49Z"/>
    <path class="cls-3" d="M476.27,113.99v10.44h14.03v6.62h-14.03v11.04h15.82v6.8h-24.17v-41.72h24.17v6.8h-15.82Z"/>
    <path class="cls-3" d="M521.16,148.91l-9.19-16.23h-3.94v16.23h-8.36v-41.66h15.64c3.22,0,5.97.57,8.24,1.7,2.27,1.13,3.97,2.67,5.1,4.6,1.13,1.93,1.7,4.09,1.7,6.48,0,2.75-.8,5.22-2.39,7.43-1.59,2.21-3.96,3.73-7.1,4.57l9.97,16.89h-9.67ZM508.03,126.41h6.98c2.27,0,3.96-.55,5.07-1.64,1.11-1.09,1.67-2.62,1.67-4.57s-.56-3.39-1.67-4.45c-1.11-1.05-2.81-1.58-5.07-1.58h-6.98v12.24Z"/>
    <path class="cls-3" d="M575.35,107.25l-15.28,41.66h-10.15l-15.28-41.66h8.95l11.46,33.12,11.4-33.12h8.89Z"/>
    <path class="cls-3" d="M588.72,107.25v41.66h-8.36v-41.66h8.36ZM581.73,102.12c-.76-.76-1.13-1.69-1.13-2.81s.38-2.06,1.13-2.83c.75-.78,1.69-1.16,2.8-1.16s2.06.39,2.83,1.16,1.16,1.72,1.16,2.83-.39,2.05-1.16,2.81c-.78.76-1.72,1.13-2.83,1.13s-2.05-.38-2.8-1.13Z"/>
    <path class="cls-3" d="M603.49,147.83c-2.33-.99-4.17-2.43-5.52-4.3-1.35-1.87-2.05-4.08-2.09-6.62h8.95c.12,1.71.73,3.06,1.82,4.06,1.09,1,2.6,1.49,4.51,1.49s3.48-.47,4.59-1.4c1.11-.93,1.67-2.16,1.67-3.67,0-1.23-.38-2.25-1.13-3.04-.76-.79-1.7-1.42-2.83-1.88-1.13-.46-2.7-.96-4.68-1.52-2.71-.8-4.9-1.58-6.59-2.36-1.69-.78-3.14-1.95-4.36-3.52-1.21-1.57-1.82-3.67-1.82-6.3,0-2.47.62-4.62,1.85-6.45,1.23-1.83,2.96-3.23,5.19-4.21,2.23-.97,4.77-1.46,7.64-1.46,4.3,0,7.79,1.04,10.47,3.13,2.69,2.09,4.17,5,4.45,8.74h-9.19c-.08-1.43-.69-2.62-1.82-3.55-1.13-.93-2.64-1.4-4.51-1.4-1.63,0-2.93.42-3.91,1.25-.98.84-1.46,2.05-1.46,3.64,0,1.12.37,2.04,1.1,2.78.74.74,1.65,1.33,2.75,1.79,1.09.46,2.64.98,4.62,1.58,2.71.8,4.91,1.59,6.62,2.39,1.71.8,3.18,1.99,4.42,3.58,1.23,1.59,1.85,3.68,1.85,6.27,0,2.23-.58,4.3-1.73,6.21-1.15,1.91-2.84,3.43-5.07,4.57s-4.87,1.7-7.94,1.7c-2.91,0-5.52-.5-7.85-1.49Z"/>
  </g>
</svg>
