<?xml version="1.0" encoding="UTF-8"?>
<svg id="katman_1" data-name="katman 1" xmlns="http://www.w3.org/2000/svg" viewBox="0 0 910.59 244.24">
  <defs>
    <style>
      .cls-1 {
        stroke: #314e8d;
        stroke-miterlimit: 10;
        stroke-width: 6px;
      }

      .cls-1, .cls-2 {
        fill: #fff;
      }

      .cls-2, .cls-3 {
        stroke-width: 0px;
      }

      .cls-3 {
        fill: #314e8d;
      }
    </style>
  </defs>
  <path class="cls-1" d="M785.92,230.67H124.67c-59.95,0-108.55-48.6-108.55-108.55h0c0-59.95,48.6-108.55,108.55-108.55h661.25c59.95,0,108.55,48.6,108.55,108.55h0c0,59.95-48.6,108.55-108.55,108.55Z"/>
  <g>
    <path class="cls-3" d="M84.71,147.83c-2.33-.99-4.17-2.43-5.52-4.3-1.35-1.87-2.05-4.08-2.09-6.62h8.95c.12,1.71.73,3.06,1.82,4.06,1.09,1,2.6,1.49,4.51,1.49s3.48-.47,4.6-1.4c1.11-.93,1.67-2.16,1.67-3.67,0-1.23-.38-2.25-1.13-3.04-.76-.79-1.7-1.42-2.83-1.88-1.13-.46-2.7-.96-4.69-1.52-2.71-.8-4.9-1.58-6.6-2.36-1.69-.78-3.14-1.95-4.36-3.52-1.21-1.57-1.82-3.67-1.82-6.3,0-2.47.62-4.62,1.85-6.45,1.23-1.83,2.96-3.23,5.19-4.21,2.23-.97,4.77-1.46,7.64-1.46,4.3,0,7.79,1.04,10.47,3.13,2.69,2.09,4.17,5,4.45,8.74h-9.19c-.08-1.43-.69-2.62-1.82-3.55-1.13-.93-2.64-1.4-4.51-1.4-1.63,0-2.93.42-3.91,1.25-.98.84-1.46,2.05-1.46,3.64,0,1.12.37,2.04,1.1,2.78.74.74,1.65,1.33,2.75,1.79,1.09.46,2.64.98,4.63,1.58,2.71.8,4.91,1.59,6.62,2.39,1.71.8,3.18,1.99,4.42,3.58,1.23,1.59,1.85,3.68,1.85,6.27,0,2.23-.58,4.3-1.73,6.21-1.15,1.91-2.85,3.43-5.07,4.57-2.23,1.13-4.87,1.7-7.94,1.7-2.91,0-5.52-.5-7.85-1.49Z"/>
    <path class="cls-3" d="M140.06,140.97h-16.59l-2.75,7.94h-8.77l14.98-41.72h9.73l14.98,41.72h-8.83l-2.75-7.94ZM137.79,134.29l-6.03-17.43-6.03,17.43h12.06Z"/>
    <path class="cls-3" d="M186.26,119.78c-.95-1.75-2.27-3.08-3.94-4-1.67-.92-3.62-1.37-5.85-1.37-2.47,0-4.66.56-6.56,1.67-1.91,1.11-3.4,2.71-4.48,4.77-1.07,2.07-1.61,4.46-1.61,7.16s.55,5.21,1.64,7.28c1.09,2.07,2.62,3.66,4.57,4.78,1.95,1.11,4.22,1.67,6.8,1.67,3.18,0,5.79-.84,7.82-2.54,2.03-1.69,3.36-4.05,4-7.07h-14.32v-6.39h22.56v7.28c-.56,2.9-1.75,5.59-3.58,8.06-1.83,2.47-4.19,4.45-7.07,5.94-2.89,1.49-6.12,2.24-9.7,2.24-4.02,0-7.65-.9-10.89-2.71-3.24-1.81-5.79-4.33-7.64-7.55-1.85-3.22-2.78-6.88-2.78-10.98s.93-7.77,2.78-11.01c1.85-3.24,4.4-5.77,7.64-7.58,3.24-1.81,6.85-2.71,10.83-2.71,4.69,0,8.77,1.14,12.24,3.43,3.46,2.29,5.85,5.5,7.16,9.64h-9.61ZM182.97,102.12c-1.71,1.63-4.04,2.45-6.98,2.45s-5.16-.83-6.89-2.48c-1.73-1.65-2.6-3.91-2.6-6.77v-1.19h4.42c0,1.35.38,2.38,1.13,3.07.76.7,2.07,1.04,3.94,1.04s3.18-.35,3.94-1.04c.76-.7,1.13-1.72,1.13-3.07h4.48v1.25c0,2.87-.86,5.11-2.57,6.75Z"/>
    <path class="cls-3" d="M211.44,142.28h13.73v6.62h-22.08v-41.66h8.36v35.03Z"/>
    <path class="cls-3" d="M238.84,107.25v41.66h-8.36v-41.66h8.36Z"/>
    <path class="cls-3" d="M270.59,148.91l-15.16-18.56v18.56h-8.36v-41.66h8.36v18.68l15.16-18.68h10.09l-17.19,20.65,17.67,21.01h-10.56Z"/>
    <path class="cls-3" d="M324.36,148.91l-15.16-18.56v18.56h-8.36v-41.66h8.36v18.68l15.16-18.68h10.09l-17.19,20.65,17.67,21.01h-10.56Z"/>
    <path class="cls-3" d="M348.65,107.25v25.78c0,2.83.74,4.98,2.21,6.48,1.47,1.49,3.54,2.24,6.21,2.24s4.79-.75,6.27-2.24c1.47-1.49,2.21-3.65,2.21-6.48v-25.78h8.42v25.72c0,3.54-.77,6.54-2.3,8.98-1.53,2.45-3.58,4.29-6.15,5.52-2.57,1.23-5.42,1.85-8.56,1.85s-5.92-.62-8.45-1.85c-2.53-1.23-4.53-3.07-6-5.52-1.47-2.45-2.21-5.44-2.21-8.98v-25.72h8.36Z"/>
    <path class="cls-3" d="M403.5,148.91l-9.19-16.23h-3.94v16.23h-8.36v-41.66h15.64c3.22,0,5.97.57,8.24,1.7,2.27,1.13,3.97,2.67,5.1,4.6,1.13,1.93,1.7,4.09,1.7,6.48,0,2.75-.8,5.22-2.39,7.43-1.59,2.21-3.96,3.73-7.1,4.57l9.97,16.89h-9.67ZM390.37,126.41h6.98c2.27,0,3.96-.55,5.07-1.64,1.11-1.09,1.67-2.62,1.67-4.57s-.56-3.39-1.67-4.45c-1.11-1.05-2.81-1.58-5.07-1.58h-6.98v12.24Z"/>
    <path class="cls-3" d="M428.51,107.25v25.78c0,2.83.73,4.98,2.21,6.48s3.54,2.24,6.21,2.24,4.79-.75,6.27-2.24c1.47-1.49,2.21-3.65,2.21-6.48v-25.78h8.41v25.72c0,3.54-.77,6.54-2.3,8.98-1.53,2.45-3.58,4.29-6.15,5.52-2.57,1.23-5.42,1.85-8.56,1.85s-5.92-.62-8.45-1.85c-2.53-1.23-4.53-3.07-6-5.52-1.47-2.45-2.21-5.44-2.21-8.98v-25.72h8.36Z"/>
    <path class="cls-3" d="M507.29,107.25v41.66h-8.36v-27.1l-11.16,27.1h-6.33l-11.22-27.1v27.1h-8.36v-41.66h9.49l13.25,30.98,13.25-30.98h9.43Z"/>
    <path class="cls-3" d="M523.88,142.28h13.73v6.62h-22.08v-41.66h8.36v35.03Z"/>
    <path class="cls-3" d="M568.46,140.97h-16.59l-2.75,7.94h-8.77l14.98-41.72h9.73l14.98,41.72h-8.83l-2.75-7.94ZM566.2,134.29l-6.03-17.43-6.03,17.43h12.06Z"/>
    <path class="cls-3" d="M607.14,148.91l-9.19-16.23h-3.94v16.23h-8.36v-41.66h15.64c3.22,0,5.97.57,8.24,1.7,2.27,1.13,3.97,2.67,5.1,4.6,1.13,1.93,1.7,4.09,1.7,6.48,0,2.75-.8,5.22-2.39,7.43-1.59,2.21-3.96,3.73-7.1,4.57l9.97,16.89h-9.67ZM594.01,126.41h6.98c2.27,0,3.96-.55,5.07-1.64,1.11-1.09,1.67-2.62,1.67-4.57s-.56-3.39-1.67-4.45c-1.12-1.05-2.81-1.58-5.07-1.58h-6.98v12.24Z"/>
    <path class="cls-3" d="M632.26,107.25v41.66h-8.36v-41.66h8.36Z"/>
  </g>
</svg>
