<?xml version="1.0" encoding="UTF-8"?>
<svg id="katman_1" xmlns="http://www.w3.org/2000/svg" viewBox="0 0 948.99 284.9">
  <defs>
    <style>
      .cls-1 {
        fill: #16214b;
      }

      .cls-2 {
        fill: #fff;
      }

      .cls-3 {
        fill: none;
        stroke: #16214b;
        stroke-miterlimit: 10;
        stroke-width: 8px;
      }
    </style>
  </defs>
  <path class="cls-2" d="M805.12,252.13H143.87c-59.95,0-108.55-48.6-108.55-108.55h0c0-59.95,48.6-108.55,108.55-108.55h661.25c59.95,0,108.55,48.6,108.55,108.55h0c0,59.95-48.6,108.55-108.55,108.55Z"/>
  <path class="cls-3" d="M805.12,252.13H143.87c-59.95,0-108.55-48.6-108.55-108.55h0c0-59.95,48.6-108.55,108.55-108.55h661.25c59.95,0,108.55,48.6,108.55,108.55h0c0,59.95-48.6,108.55-108.55,108.55Z"/>
  <g>
    <path class="cls-1" d="M367.27,129.59v41.78h-8.38v-27.17l-11.19,27.17h-6.34l-11.25-27.17v27.17h-8.38v-41.78h9.52l13.29,31.06,13.29-31.06h9.46Z"/>
    <path class="cls-1" d="M383.79,129.59v25.86c0,2.83.74,5,2.21,6.49,1.48,1.5,3.55,2.24,6.22,2.24s4.81-.75,6.29-2.24c1.48-1.5,2.21-3.66,2.21-6.49v-25.86h8.44v25.8c0,3.55-.77,6.55-2.3,9.01-1.54,2.45-3.59,4.3-6.17,5.54-2.57,1.24-5.44,1.86-8.59,1.86s-5.94-.62-8.47-1.86c-2.53-1.24-4.54-3.08-6.02-5.54-1.48-2.45-2.21-5.46-2.21-9.01v-25.8h8.38Z"/>
    <path class="cls-1" d="M451.9,129.59v41.78h-8.38v-17.78h-17.9v17.78h-8.38v-41.78h8.38v17.18h17.9v-17.18h8.38Z"/>
    <path class="cls-1" d="M488.59,129.59v6.76h-11.13v35.01h-8.38v-35.01h-11.13v-6.76h30.65Z"/>
    <path class="cls-1" d="M520.31,163.41h-16.64l-2.75,7.96h-8.8l15.02-41.84h9.76l15.02,41.84h-8.86l-2.75-7.96ZM518.04,156.71l-6.05-17.48-6.04,17.48h12.09Z"/>
    <path class="cls-1" d="M559.1,171.37l-9.22-16.28h-3.95v16.28h-8.38v-41.78h15.68c3.23,0,5.99.57,8.26,1.71,2.27,1.14,3.98,2.67,5.12,4.61,1.14,1.94,1.71,4.1,1.71,6.49,0,2.75-.8,5.24-2.39,7.45-1.6,2.21-3.97,3.74-7.12,4.58l10,16.94h-9.7ZM545.93,148.81h7c2.27,0,3.97-.55,5.09-1.65,1.12-1.1,1.68-2.62,1.68-4.58s-.56-3.4-1.68-4.46c-1.12-1.06-2.81-1.59-5.09-1.59h-7v12.27Z"/>
    <path class="cls-1" d="M584.3,164.73h13.77v6.64h-22.15v-41.78h8.38v35.13Z"/>
    <path class="cls-1" d="M611.77,129.59v41.78h-8.38v-41.78h8.38Z"/>
    <path class="cls-1" d="M643.61,171.37l-15.2-18.61v18.61h-8.38v-41.78h8.38v18.73l15.2-18.73h10.12l-17.24,20.71,17.72,21.07h-10.59Z"/>
  </g>
</svg>