<?xml version="1.0" encoding="UTF-8"?>
<svg id="katman_1" data-name="katman 1" xmlns="http://www.w3.org/2000/svg" viewBox="0 0 910.59 244.24">
  <defs>
    <style>
      .cls-1 {
        stroke: #314e8d;
        stroke-miterlimit: 10;
        stroke-width: 6px;
      }

      .cls-1, .cls-2 {
        fill: #fff;
      }

      .cls-2, .cls-3 {
        stroke-width: 0px;
      }

      .cls-3 {
        fill: #314e8d;
      }
    </style>
  </defs>
  <path class="cls-1" d="M785.92,230.67H124.67c-59.95,0-108.55-48.6-108.55-108.55h0c0-59.95,48.6-108.55,108.55-108.55h661.25c59.95,0,108.55,48.6,108.55,108.55h0c0,59.95-48.6,108.55-108.55,108.55Z"/>
  <g>
    <path class="cls-3" d="M410.14,109.8v41.66h-8.36v-41.66h8.36ZM403.15,104.66c-.76-.75-1.13-1.69-1.13-2.8s.38-2.06,1.13-2.83c.76-.78,1.69-1.16,2.81-1.16s2.06.39,2.83,1.16c.78.78,1.16,1.72,1.16,2.83s-.39,2.05-1.16,2.8c-.78.76-1.72,1.13-2.83,1.13s-2.05-.38-2.81-1.13Z"/>
    <path class="cls-3" d="M426.73,144.83h13.73v6.62h-22.08v-41.66h8.36v35.03Z"/>
    <path class="cls-3" d="M454.12,116.54v10.45h14.03v6.62h-14.03v11.04h15.82v6.8h-24.17v-41.72h24.17v6.8h-15.82Z"/>
    <path class="cls-3" d="M505.87,109.8v6.74h-11.1v34.92h-8.36v-34.92h-11.1v-6.74h30.56Z"/>
    <path class="cls-3" d="M520.31,109.8v41.66h-8.36v-41.66h8.36ZM513.33,104.66c-.76-.75-1.13-1.69-1.13-2.8s.38-2.06,1.13-2.83c.76-.78,1.69-1.16,2.81-1.16s2.06.39,2.83,1.16,1.16,1.72,1.16,2.83-.39,2.05-1.16,2.8c-.78.76-1.72,1.13-2.83,1.13s-2.05-.38-2.81-1.13Z"/>
    <path class="cls-3" d="M556.27,145.01c-.94,1.75-2.31,3.22-4.12,4.42-1.81,1.19-3.97,1.95-6.48,2.27v2.75c2.19,0,4.03.56,5.52,1.67s2.24,2.73,2.24,4.83-.77,3.8-2.3,4.95c-1.53,1.15-3.41,1.73-5.64,1.73h-8.47v-4.89h7.1c.95,0,1.68-.14,2.18-.42.5-.28.75-.78.75-1.49s-.25-1.2-.75-1.46c-.5-.26-1.22-.39-2.18-.39h-3.7v-7.22c-3.82-.44-6.92-1.73-9.31-3.88-2.39-2.15-3.6-4.95-3.64-8.42h8.95c.12,1.71.73,3.06,1.82,4.06,1.09,1,2.6,1.49,4.51,1.49s3.48-.47,4.6-1.4c1.11-.93,1.67-2.16,1.67-3.67,0-1.23-.38-2.25-1.13-3.04-.76-.8-1.7-1.42-2.83-1.88-1.13-.46-2.7-.96-4.69-1.52-2.71-.79-4.9-1.58-6.59-2.36-1.69-.78-3.14-1.95-4.36-3.52-1.21-1.57-1.82-3.67-1.82-6.3,0-2.47.62-4.62,1.85-6.45,1.23-1.83,2.96-3.23,5.19-4.21,2.23-.97,4.77-1.46,7.64-1.46,4.3,0,7.79,1.04,10.47,3.13,2.69,2.09,4.17,5,4.45,8.74h-9.19c-.08-1.43-.69-2.62-1.82-3.55s-2.64-1.4-4.51-1.4c-1.63,0-2.93.42-3.91,1.25-.98.83-1.46,2.05-1.46,3.64,0,1.11.37,2.04,1.1,2.78.74.74,1.65,1.33,2.75,1.79,1.09.46,2.64.99,4.63,1.58,2.71.8,4.91,1.59,6.62,2.39,1.71.8,3.18,1.99,4.42,3.58s1.85,3.68,1.85,6.27c0,1.99-.47,3.86-1.4,5.61Z"/>
    <path class="cls-3" d="M573.25,109.8v41.66h-8.36v-41.66h8.36ZM566.27,104.66c-.76-.75-1.13-1.69-1.13-2.8s.38-2.06,1.13-2.83c.76-.78,1.69-1.16,2.81-1.16s2.06.39,2.83,1.16,1.16,1.72,1.16,2.83-.39,2.05-1.16,2.8c-.78.76-1.72,1.13-2.83,1.13s-2.05-.38-2.81-1.13Z"/>
    <path class="cls-3" d="M626.91,109.8v41.66h-8.36v-27.1l-11.16,27.1h-6.33l-11.22-27.1v27.1h-8.36v-41.66h9.49l13.25,30.98,13.25-30.98h9.43Z"/>
  </g>
</svg>
